<?xml version="1.0" standalone="no"?>
<!DOCTYPE svg PUBLIC "-//W3C//DTD SVG 1.1//EN" "http://www.w3.org/Graphics/SVG/1.1/DTD/svg11.dtd" >
<svg xmlns="http://www.w3.org/2000/svg">
<metadata></metadata>
<defs>
<font id="klavika-mediummedium" horiz-adv-x="1005" >
<font-face units-per-em="2048" ascent="1536" descent="-512" />
<missing-glyph horiz-adv-x="430" />
<glyph unicode="&#xfb01;" horiz-adv-x="1280" d="M51 799v198h160v140q0 156 75.5 232.5t241.5 76.5q59 0 103.5 -7t93.5 -20l-27 -192q-59 14 -125 14q-74 0 -93 -30.5t-19 -88.5v-125h676v-997h-250v799h-426v-799h-250v799h-160zM887 1139v288h250v-288h-250z" />
<glyph unicode="&#xfb02;" horiz-adv-x="1280" d="M51 799v198h160v140q0 156 75.5 232.5t241.5 76.5q47 0 98.5 -6t98.5 -21l-27 -192q-31 6 -65.5 10t-59.5 4q-74 0 -93 -30.5t-19 -88.5v-125h254l-15 -198h-239v-799h-250v799h-160zM887 0v1405l250 35v-1440h-250z" />
<glyph horiz-adv-x="2048" />
<glyph horiz-adv-x="2048" />
<glyph unicode="&#xd;" horiz-adv-x="430" />
<glyph unicode=" "  horiz-adv-x="430" />
<glyph unicode="&#x09;" horiz-adv-x="430" />
<glyph unicode="&#xa0;" horiz-adv-x="430" />
<glyph unicode="!" horiz-adv-x="581" d="M164 0v287h254v-287h-254zM166 797v608h250v-608l-51 -355h-148z" />
<glyph unicode="&#x22;" horiz-adv-x="792" d="M123 899v506h178v-506h-178zM492 899v506h178v-506h-178z" />
<glyph unicode="#" horiz-adv-x="1429" d="M102 334l11 172h252l16 325h-258l10 173h256l17 319h186l-17 -319h318l16 319h187l-19 -319h246l-10 -173h-244l-16 -325h250l-11 -172h-248l-16 -334h-184l16 334h-317l-19 -334h-184l16 334h-254zM549 506h319l15 325h-318z" />
<glyph unicode="$" horiz-adv-x="1036" d="M102 47l45 205q70 -23 155 -39t177 -16q63 0 102.5 8t61 28.5t27.5 52t6 81.5q0 49 -5 78.5t-26.5 51t-65.5 37t-122 33.5q-117 27 -185.5 57.5t-104.5 75.5t-46 111t-10 162q0 88 17 153.5t57 109.5t106.5 69.5t163.5 33.5v230h207v-230q57 -4 121.5 -12t119.5 -22 l-26 -215q-74 16 -166.5 25t-167.5 9q-53 0 -88 -6t-56.5 -22.5t-30 -47t-8.5 -81.5q0 -49 4.5 -77t25 -46.5t60 -31.5t113.5 -34q131 -37 204 -71.5t108.5 -78.5t43 -105.5t7.5 -153.5q0 -88 -14.5 -156t-51.5 -115t-97.5 -74.5t-152.5 -37.5v-228h-204v226q-78 4 -156 20 t-148 43z" />
<glyph unicode="%" horiz-adv-x="1796" d="M102 930v164q0 63 15.5 116.5t52.5 92t98.5 60t153.5 21.5t153.5 -21.5t98.5 -60t52 -92t15 -116.5v-164q0 -63 -15 -116.5t-52 -92.5t-98.5 -60.5t-153.5 -21.5t-153.5 21.5t-98.5 60.5t-52.5 92t-15.5 117zM299 915q0 -55 25.5 -80.5t97.5 -25.5t97.5 25.5t25.5 80.5 v193q0 55 -25.5 80.5t-97.5 25.5t-97.5 -25.5t-25.5 -80.5v-193zM535 43l550 1341l158 -63l-551 -1341zM1044 270v164q0 63 15.5 116.5t52.5 92.5t98.5 60.5t153.5 21.5t153.5 -21.5t98.5 -60.5t52 -92t15 -117v-164q0 -63 -15 -116.5t-52 -92t-98.5 -60t-153.5 -21.5 t-153.5 21.5t-98.5 60t-52.5 92t-15.5 116.5zM1241 256q0 -55 25.5 -80.5t97.5 -25.5t97.5 25.5t25.5 80.5v193q0 55 -25.5 80.5t-97.5 25.5t-97.5 -25.5t-25.5 -80.5v-193z" />
<glyph unicode="&#x26;" horiz-adv-x="1341" d="M143 315v115q0 96 38 167t128 103q-82 41 -111.5 105.5t-29.5 142.5v107q0 74 21.5 135t72.5 104t133 66.5t205 23.5q102 0 204.5 -9t201.5 -32l-23 -204q-94 16 -197.5 24t-195.5 8q-96 0 -133 -30.5t-37 -96.5v-122q0 -61 31.5 -98.5t109.5 -37.5h688v-211h-198v-528 q-109 -35 -235 -51t-241 -16q-123 0 -204.5 24.5t-133 68.5t-73 105.5t-21.5 136.5zM395 342q0 -80 37 -118t150 -38q47 0 109.5 4.5t121.5 14.5v370h-231q-92 0 -139.5 -34.5t-47.5 -112.5v-86z" />
<glyph unicode="'" horiz-adv-x="423" d="M123 899v506h178v-506h-178z" />
<glyph unicode="(" horiz-adv-x="686" d="M143 623q0 293 88 523t230 415l184 -107q-61 -102 -108.5 -197.5t-79 -194.5t-47 -206.5t-15.5 -232.5t15.5 -232.5t47 -207t79 -196t108.5 -196.5l-184 -106q-141 182 -229.5 414.5t-88.5 523.5z" />
<glyph unicode=")" horiz-adv-x="686" d="M41 -209q61 100 108.5 196.5t79 196t47 207t15.5 232.5t-15.5 232.5t-47 206.5t-79 194.5t-108.5 197.5l184 107q141 -184 229.5 -415t88.5 -523q0 -291 -88 -523.5t-230 -414.5z" />
<glyph unicode="*" horiz-adv-x="1028" d="M123 999v121h278l-151 240l100 65l162 -249l162 249l102 -65l-155 -240h284v-121h-278l149 -231l-104 -66l-160 248l-160 -248l-104 66l149 231h-274z" />
<glyph unicode="+" horiz-adv-x="1081" d="M123 399v197h315v317h205v-317h315v-197h-315v-317h-205v317h-315z" />
<glyph unicode="," horiz-adv-x="561" d="M133 -221l115 221h-94v287h254v-303l-160 -269z" />
<glyph unicode="-" horiz-adv-x="761" d="M123 469v209h516v-209h-516z" />
<glyph unicode="." horiz-adv-x="561" d="M154 0v287h254v-287h-254z" />
<glyph unicode="/" horiz-adv-x="940" d="M113 -240l508 1624h227l-510 -1624h-225z" />
<glyph unicode="0" horiz-adv-x="1150" d="M133 346v631q0 76 22.5 143.5t74 116.5t136.5 77.5t209 28.5q125 0 210 -28.5t136.5 -77.5t74 -116.5t22.5 -143.5v-631q0 -78 -22.5 -144.5t-74 -115.5t-136.5 -77.5t-210 -28.5t-209.5 28.5t-136 77.5t-74 115.5t-22.5 144.5zM383 371q0 -45 8 -77t29.5 -53.5 t58.5 -31.5t96 -10t96.5 10t59 31.5t29.5 53.5t8 77v581q0 45 -8 77t-29.5 53.5t-58.5 31.5t-97 10q-59 0 -96 -10t-58.5 -31.5t-29.5 -53.5t-8 -77v-581z" />
<glyph unicode="1" horiz-adv-x="786" d="M20 1106l377 217h226v-1323h-250v1047l-248 -138z" />
<glyph unicode="2" horiz-adv-x="1026" d="M102 1290q70 20 165 36.5t206 16.5q119 0 200 -20t131 -60t72.5 -100.5t22.5 -140.5v-47q0 -72 -5 -120t-26.5 -96t-62.5 -104.5t-113 -144.5q-43 -53 -74.5 -92t-59.5 -72t-53.5 -62.5t-55.5 -64.5h454v-219h-794v215q57 63 95 103t69.5 76t65.5 75t87 100 q72 84 116 136.5t67.5 92.5t31.5 75.5t8 84.5v35q0 76 -39 102.5t-151 26.5q-68 0 -156 -12t-166 -29z" />
<glyph unicode="3" horiz-adv-x="1007" d="M102 23l27 206q150 -31 293 -30q68 0 109.5 7t64 24.5t31 44t8.5 67.5v80q0 76 -35 103.5t-113 27.5h-292v223h247q102 0 135 36t33 108v79q0 74 -40 99.5t-148 25.5q-76 0 -146.5 -8t-136.5 -20l-26 211q68 16 155.5 26t175.5 10q121 0 201 -19t128 -58t67.5 -94.5 t19.5 -129.5v-127q0 -100 -33.5 -156.5t-113.5 -90.5q88 -29 130 -86.5t42 -161.5v-117q0 -78 -21.5 -137.5t-74 -101t-139.5 -63t-220 -21.5q-35 0 -79 3t-89 8t-87 13t-73 19z" />
<glyph unicode="4" horiz-adv-x="1157" d="M57 291v231l531 801h334v-819h174v-213h-174v-291h-246v291h-619zM307 504h369v571z" />
<glyph unicode="5" horiz-adv-x="1028" d="M123 29l31 204q76 -16 157.5 -25t155.5 -9q70 0 109.5 9t59 27.5t25 47t5.5 69.5v66q0 72 -34 105.5t-143 37.5q-55 2 -98 4t-80 3t-71.5 2t-75.5 1v752h729v-217h-479v-330q27 0 48 -1t41.5 -2t43 -2t51.5 -3q90 -4 150.5 -28.5t97.5 -65.5t53 -96.5t16 -122.5v-125 q0 -80 -17 -145.5t-66.5 -110.5t-136.5 -69.5t-224 -24.5q-94 0 -185 13t-163 36z" />
<glyph unicode="6" horiz-adv-x="1077" d="M123 371v497q0 135 36 226.5t106.5 146.5t177 78.5t245.5 23.5q57 0 123 -7t113 -17l-17 -209q-45 10 -102 14t-90 4q-90 0 -155.5 -9t-106.5 -36.5t-60.5 -77t-19.5 -126.5v-127q106 37 243 36q186 0 267.5 -79.5t81.5 -257.5v-99q0 -80 -20.5 -148.5t-69 -117.5 t-129 -77.5t-201.5 -28.5q-133 0 -215 27.5t-128 78.5t-62.5 124t-16.5 161zM373 344q0 -86 36.5 -117.5t135.5 -31.5q98 0 134 35.5t36 113.5v100q0 74 -34.5 101.5t-102.5 27.5q-55 0 -108.5 -12t-96.5 -31v-186z" />
<glyph unicode="7" horiz-adv-x="942" d="M51 1104v219h830v-211l-473 -1112h-261l471 1104h-567z" />
<glyph unicode="8" horiz-adv-x="1118" d="M123 319v87q0 43 9 78.5t31.5 68.5t59.5 62.5t94 58.5q-96 55 -128.5 116.5t-32.5 137.5v92q0 74 21.5 134t69.5 102t125 64.5t187 22.5q111 0 187.5 -22.5t125 -64.5t70 -102t21.5 -134v-92q0 -76 -33 -137.5t-129 -116.5q115 -57 154.5 -121t39.5 -147v-87 q0 -90 -23.5 -154.5t-74.5 -105.5t-135 -60t-203 -19q-121 0 -204 19t-134 60t-74.5 105.5t-23.5 154.5zM365 324q0 -76 42 -107t152 -31q111 0 153 31t42 107v55q0 33 -6.5 56.5t-26 45t-58 43t-104.5 45.5q-66 -25 -104.5 -46t-58 -42.5t-25.5 -45t-6 -56.5v-55zM397 928 q0 -29 5.5 -49.5t22.5 -38t49 -35t85 -37.5q53 20 85 37.5t49.5 35t22.5 38t5 49.5v86q0 61 -33 93t-129 32t-129 -32t-33 -93v-86z" />
<glyph unicode="9" horiz-adv-x="1067" d="M102 872v99q0 86 21.5 154.5t72 117.5t130.5 74.5t196 25.5q131 0 214 -27.5t129 -78.5t62.5 -124t16.5 -161v-497q0 -135 -36 -226.5t-106.5 -146.5t-177 -78.5t-245.5 -23.5q-57 0 -123 7t-113 17l23 209q45 -10 99 -14t87 -4q98 0 165 12t106 42t55 77t16 118v127 q-109 -37 -243 -36q-186 0 -267.5 79.5t-81.5 257.5zM352 879q0 -74 34.5 -101.5t102.5 -27.5q55 0 108.5 12t96.5 31v186q0 86 -36.5 117.5t-135.5 31.5q-98 0 -134 -35.5t-36 -113.5v-100z" />
<glyph unicode=":" horiz-adv-x="561" d="M154 0v287h254v-287h-254zM154 623v286h254v-286h-254z" />
<glyph unicode=";" horiz-adv-x="561" d="M133 -221l115 221h-94v287h254v-303l-160 -269zM154 623v286h254v-286h-254z" />
<glyph unicode="&#x3c;" horiz-adv-x="1200" d="M102 432v135l885 451l78 -152l-727 -366l729 -367l-80 -153z" />
<glyph unicode="=" horiz-adv-x="1103" d="M143 233v173h818v-173h-818zM143 618v173h818v-173h-818z" />
<glyph unicode="&#x3e;" horiz-adv-x="1200" d="M133 133l729 367l-727 366l78 152l885 -451v-135l-885 -452z" />
<glyph unicode="?" d="M102 1380q78 20 172.5 32.5t184.5 12.5q133 0 217 -23.5t132 -70.5t66.5 -118.5t18.5 -168.5q0 -74 -4 -126t-20.5 -97t-49.5 -85t-92 -89q-33 -27 -61.5 -49.5t-58 -46t-62.5 -48t-76 -57.5l-141 191q49 39 91 71.5t97 77.5q45 37 70.5 61.5t38 50.5t15.5 55.5t3 76.5 q0 49 -8 82t-31.5 52.5t-64.5 28.5t-107 9t-145.5 -10t-147.5 -27zM301 0v287h254v-287h-254z" />
<glyph unicode="@" horiz-adv-x="1511" d="M102 682q0 150 50.5 279t141.5 223t217 147t280 53q152 0 268.5 -45t196 -121.5t121.5 -178t42 -216.5q0 -84 -16.5 -162.5t-58 -140t-113.5 -99.5t-182 -38q-68 0 -125.5 24.5t-79.5 71.5q-39 -23 -93.5 -37t-107.5 -14q-49 0 -78.5 16.5t-46 43t-19.5 60t3 68.5 q6 39 11 66t9 48.5t7 43t10 51.5q20 113 79.5 153t165.5 40q31 0 67 -5t71.5 -14.5t68.5 -22.5t58 -28l-76 -424q37 -10 71 -10q66 0 107 25.5t64.5 68.5t31.5 97.5t8 113.5q0 86 -28.5 162t-87 131t-145.5 88t-203 33q-113 0 -208.5 -41t-164 -113.5t-107.5 -174 t-39 -222.5q0 -254 144.5 -401.5t423.5 -147.5q78 0 155.5 13.5t161.5 46.5l47 -138q-78 -39 -175 -57t-187 -18q-184 0 -322.5 52t-230.5 145t-139.5 222t-47.5 283zM645 614q-6 -35 6.5 -49t40.5 -14q29 0 72 13.5t78 37.5l47 270q-27 10 -56.5 16.5t-54.5 6.5 q-47 0 -68.5 -19.5t-29.5 -60.5q-8 -47 -17.5 -102.5t-17.5 -98.5z" />
<glyph unicode="A" horiz-adv-x="1323" d="M51 0l430 1364h361l430 -1364h-271l-88 283h-505l-86 -283h-271zM471 506h377l-186 645z" />
<glyph unicode="B" horiz-adv-x="1181" d="M154 0v1364h536q195 0 279 -76t84 -215v-141q0 -86 -37 -136.5t-115 -84.5q94 -20 146.5 -86t52.5 -166v-146q0 -145 -93.5 -229t-279.5 -84h-573zM412 213h264q88 0 127 28.5t39 104.5v103q0 70 -33 103.5t-111 33.5h-286v-373zM412 793h245q76 0 107 33.5t31 93.5v120 q0 57 -32 84t-104 27h-247v-358z" />
<glyph unicode="C" horiz-adv-x="1071" d="M123 375v614q0 188 114.5 291.5t370.5 103.5q96 0 190.5 -11t180.5 -34l-29 -223q-84 16 -173 25.5t-161 9.5q-133 0 -184 -49t-51 -158v-524q0 -109 51 -158t184 -49q72 0 161 9t173 26l29 -223q-86 -23 -180 -34t-191 -11q-256 0 -370.5 103.5t-114.5 291.5z" />
<glyph unicode="D" horiz-adv-x="1236" d="M154 0v1364h508q125 0 212 -29.5t140 -80t76.5 -117t23.5 -140.5v-630q0 -74 -23.5 -139.5t-76.5 -117t-140.5 -81t-211.5 -29.5h-508zM412 227h223q131 0 176 51.5t45 149.5v508q0 98 -45 149.5t-176 51.5h-223v-910z" />
<glyph unicode="E" horiz-adv-x="1101" d="M154 0v1364h835v-227h-577v-330h532v-227h-532v-353h577v-227h-835z" />
<glyph unicode="F" horiz-adv-x="1069" d="M154 0v1364h843v-227h-585v-363h540v-227h-540v-547h-258z" />
<glyph unicode="G" horiz-adv-x="1196" d="M123 391v582q0 211 125 311t393 100q84 0 191.5 -10t199.5 -35l-28 -225q-94 20 -188.5 28.5t-194.5 8.5q-135 0 -187.5 -54.5t-52.5 -158.5v-516q0 -100 51 -155.5t186 -55.5q53 0 105.5 4t105.5 12v414h244v-600q-109 -31 -228.5 -46t-228.5 -15q-252 0 -372.5 103 t-120.5 308z" />
<glyph unicode="H" horiz-adv-x="1329" d="M154 0v1364h258v-561h506v561h258v-1364h-258v575h-506v-575h-258z" />
<glyph unicode="I" horiz-adv-x="585" d="M164 0v1364h258v-1364h-258z" />
<glyph unicode="J" horiz-adv-x="555" d="M-20 -248q57 55 91.5 89t53 58.5t24 46t5.5 54.5v1364h258v-1387q0 -53 -12.5 -95t-44 -86t-86 -96t-136.5 -122z" />
<glyph unicode="K" horiz-adv-x="1253" d="M154 0v1364h258v-1364h-258zM449 690l421 674h293l-430 -674l459 -690h-297z" />
<glyph unicode="L" horiz-adv-x="1034" d="M154 0v1364h258v-1137h561v-227h-819z" />
<glyph unicode="M" horiz-adv-x="1671" d="M133 0l62 1364h288l353 -969l352 969h289l61 -1364h-264l-23 883l-252 -707h-327l-252 707l-23 -883h-264z" />
<glyph unicode="N" horiz-adv-x="1421" d="M154 0v1364h344l518 -1036v1036h252v-1364h-344l-518 1034v-1034h-252z" />
<glyph unicode="O" horiz-adv-x="1277" d="M123 399v566q0 86 26.5 161.5t87 133t159 91t243.5 33.5q143 0 242.5 -33.5t160 -91t87 -133t26.5 -161.5v-566q0 -86 -26.5 -161.5t-87 -133t-160 -91t-242.5 -33.5q-145 0 -243.5 33.5t-159 91t-87 133t-26.5 161.5zM381 414q0 -96 56.5 -151.5t201.5 -55.5 q143 0 200.5 55t57.5 152v536q0 96 -57.5 151.5t-200.5 55.5q-145 0 -201.5 -55t-56.5 -152v-536z" />
<glyph unicode="P" horiz-adv-x="1179" d="M154 0v1364h532q236 0 334 -94t98 -275v-186q0 -178 -103.5 -272.5t-340.5 -94.5h-262v-442h-258zM412 670h260q109 0 148.5 41t39.5 125v139q0 86 -41 124t-147 38h-260v-467z" />
<glyph unicode="Q" horiz-adv-x="1277" d="M123 399v566q0 86 26.5 161.5t87 133t159 91t243.5 33.5q143 0 242.5 -33.5t160 -91t87 -133t26.5 -161.5v-566q0 -70 -17.5 -134t-56.5 -116.5t-102.5 -91.5t-153.5 -59l109 -256l-232 -96l-143 338q-121 8 -205 45t-135 92t-73.5 126.5t-22.5 151.5zM381 414 q0 -96 56.5 -151.5t201.5 -55.5q143 0 200.5 55t57.5 152v536q0 96 -57.5 151.5t-200.5 55.5q-145 0 -201.5 -55t-56.5 -152v-536z" />
<glyph unicode="R" horiz-adv-x="1331" d="M154 0v1364h559q238 0 336 -94t98 -275v-178q0 -123 -48 -207t-157 -123l338 -487h-309l-314 451h-245v-451h-258zM412 674h290q106 0 146.5 40t40.5 126v135q0 86 -41 124t-146 38h-290v-463z" />
<glyph unicode="S" horiz-adv-x="1105" d="M98 61l45 203q96 -29 189.5 -46t195.5 -17q70 0 113 8t65.5 27.5t30.5 52.5t8 82q0 57 -4 90t-28.5 54.5t-74.5 36.5t-142 36q-123 27 -198 56.5t-114 75.5t-51 115.5t-12 178.5q0 92 22.5 161.5t76.5 115.5t142.5 69.5t217.5 23.5q90 0 192 -11t205 -34l-29 -217 q-86 18 -180 29.5t-184 11.5q-66 0 -106 -7t-62.5 -25.5t-29.5 -48t-7 -74.5q0 -59 4 -92t27.5 -53.5t71.5 -36t136 -35.5q137 -33 215 -65t116 -77t46.5 -110.5t8.5 -167.5q0 -96 -18.5 -170t-71 -123t-145.5 -73.5t-245 -24.5q-59 0 -119.5 7t-118 18t-106.5 25.5 t-82 30.5z" />
<glyph unicode="T" horiz-adv-x="1122" d="M51 1137v227h1020v-227h-381v-1137h-258v1137h-381z" />
<glyph unicode="U" horiz-adv-x="1294" d="M143 395v969h258v-948q0 -100 54.5 -154.5t191.5 -54.5t191.5 54t54.5 155v948h258v-969q0 -80 -24.5 -155.5t-83 -133t-155.5 -92t-241 -34.5q-143 0 -240.5 34.5t-155.5 92t-83 133t-25 155.5z" />
<glyph unicode="V" horiz-adv-x="1228" d="M16 1364h269l329 -1137l330 1137h268l-407 -1364h-381z" />
<glyph unicode="W" horiz-adv-x="1933" d="M31 1364h256l260 -1057l248 1057h344l247 -1057l261 1057h256l-338 -1364h-348l-250 1098l-250 -1098h-348z" />
<glyph unicode="X" horiz-adv-x="1253" d="M51 0l428 686l-411 678h276l283 -475l282 475h277l-412 -678l428 -686h-278l-297 483l-297 -483h-279z" />
<glyph unicode="Y" horiz-adv-x="1159" d="M10 1364h275l295 -688l294 688h275l-440 -969v-395h-258v395z" />
<glyph unicode="Z" horiz-adv-x="1177" d="M133 0v217l631 928h-606v219h891v-219l-627 -926h633v-219h-922z" />
<glyph unicode="[" horiz-adv-x="671" d="M174 -258v1876h436v-205h-186v-1466h186v-205h-436z" />
<glyph unicode="\" horiz-adv-x="940" d="M92 1384h227l508 -1624h-225z" />
<glyph unicode="]" horiz-adv-x="671" d="M61 -53h187v1466h-187v205h437v-1876h-437v205z" />
<glyph unicode="^" horiz-adv-x="972" d="M92 852l305 553h174l310 -553l-156 -92l-240 436l-241 -436z" />
<glyph unicode="_" horiz-adv-x="899" d="M-2 -20h903v-132h-903v132z" />
<glyph unicode="`" horiz-adv-x="643" d="M123 1292l98 152q78 -57 153 -106.5t146 -94.5l-92 -139q-80 45 -149.5 88t-155.5 100z" />
<glyph unicode="a" d="M102 276q0 154 69 217.5t222 63.5h240v105q0 41 -7.5 69.5t-27.5 46t-58 25.5t-98 8q-68 0 -139.5 -8t-136.5 -23l-31 191q72 23 165 35t177 12q117 0 196 -21.5t125 -65.5t65.5 -111.5t19.5 -162.5v-657h-205l-19 68q-68 -45 -144.5 -66.5t-152.5 -21.5 q-137 0 -198.5 83.5t-61.5 212.5zM344 279q0 -53 20.5 -77t79.5 -24q55 0 104.5 15.5t84.5 35.5v148h-184q-61 0 -83 -20.5t-22 -77.5z" />
<glyph unicode="b" horiz-adv-x="1081" d="M143 14v1391l250 35v-482q55 23 134 41.5t161 18.5q162 0 231.5 -91t69.5 -251v-293q0 -90 -17.5 -165t-67.5 -128t-140 -81.5t-234 -28.5q-76 0 -184 8t-203 26zM393 201q35 -4 72 -6t78 -2q61 0 99 12t59.5 34.5t29.5 57.5t8 78v307q0 59 -28.5 91t-98.5 32 q-53 0 -112.5 -17.5t-106.5 -39.5v-547z" />
<glyph unicode="c" horiz-adv-x="858" d="M98 362v273q0 100 23.5 173t75 119t133.5 68.5t198 22.5q53 0 121 -9.5t123 -27.5l-31 -205q-51 14 -110.5 20.5t-95.5 6.5q-109 0 -148 -37t-39 -129v-277q0 -92 39 -128.5t148 -36.5q47 0 100 6t106 20l31 -205q-49 -16 -116 -26t-128 -10q-117 0 -198.5 22.5 t-133 68.5t-75 118.5t-23.5 172.5z" />
<glyph unicode="d" horiz-adv-x="1091" d="M102 326v340q0 166 78 259t252 93q66 0 136.5 -8.5t129.5 -20.5v416l250 35v-1440h-198l-25 84q-66 -47 -143.5 -75.5t-171.5 -28.5q-152 0 -230 87t-78 259zM352 319q0 -61 27 -93.5t96 -32.5q61 0 121.5 26.5t101.5 63.5v495q-49 10 -108.5 18.5t-112.5 8.5 q-68 0 -96.5 -33t-28.5 -100v-353z" />
<glyph unicode="e" horiz-adv-x="985" d="M98 365v264q0 80 19.5 150.5t67.5 123.5t127 84t200 31q119 0 195.5 -33t119.5 -88t59.5 -128t16.5 -153v-213h-555v-51q0 -92 40 -130t155 -38q72 0 147.5 11.5t157.5 35.5l39 -188q-86 -33 -181.5 -48t-185.5 -15q-117 0 -197.5 26.5t-131 75.5t-72 120.5t-21.5 162.5z M348 604h318v49q0 72 -30 116t-122 44t-129 -44t-37 -116v-49z" />
<glyph unicode="f" horiz-adv-x="743" d="M51 799v198h160v140q0 156 75.5 232.5t241.5 76.5q113 0 215 -29l-26 -192q-35 8 -74 12t-70 4q-74 0 -93 -30.5t-19 -88.5v-125h254l-15 -198h-239v-799h-250v799h-160z" />
<glyph unicode="g" horiz-adv-x="1001" d="M82 592v94q2 78 24.5 139.5t69.5 104.5t123 65.5t184 22.5q51 0 92 -5t78 -16h308v-125q-27 -8 -55.5 -15t-55.5 -15q35 -66 35 -156v-94q0 -152 -96.5 -239t-305.5 -87h-29.5t-27.5 2q-25 -16 -42 -36.5t-17 -43.5q0 -37 55 -43q41 -4 74.5 -8t66.5 -7t69 -7t79 -8 q121 -14 167 -74.5t46 -167.5q0 -80 -18.5 -136t-68 -92t-137.5 -52.5t-227 -16.5q-43 0 -93 3t-100.5 9t-99.5 16.5t-92 22.5l31 187q80 -20 164 -31.5t172 -11.5q74 0 121 3t72.5 12t34.5 24.5t9 39.5q0 47 -18.5 60.5t-75.5 19.5q-43 4 -76 8.5t-64.5 7.5t-66.5 7t-82 10 q-106 12 -151 53t-45 138q0 61 33.5 102t70.5 68q-135 82 -135 268zM317 602q0 -74 39 -104.5t127 -30.5q90 0 129 31.5t39 103.5v76q0 72 -36.5 105.5t-131.5 33.5q-92 0 -129 -33.5t-37 -105.5v-76z" />
<glyph unicode="h" horiz-adv-x="1116" d="M143 0v1405l250 35v-518q84 43 184.5 69.5t180.5 26.5q125 0 175 -80t50 -215v-723h-250v696q0 41 -18.5 60.5t-61.5 19.5q-47 0 -119.5 -24.5t-140.5 -59.5v-692h-250z" />
<glyph unicode="i" horiz-adv-x="536" d="M143 0v997h250v-997h-250zM143 1139v288h250v-288h-250z" />
<glyph unicode="j" horiz-adv-x="522" d="M-16 -264q53 49 84.5 79.5t47 54.5t19.5 47.5t4 62.5v1017h250v-1050q0 -47 -10 -85t-39 -79t-80 -89t-131 -118zM139 1139v288h250v-288h-250z" />
<glyph unicode="k" horiz-adv-x="1040" d="M143 0v1405l250 35v-1440h-250zM428 504l285 493h278l-293 -493l306 -504h-275z" />
<glyph unicode="l" horiz-adv-x="536" d="M143 0v1405l250 35v-1440h-250z" />
<glyph unicode="m" horiz-adv-x="1705" d="M143 0v997h191l24 -84q94 47 203 76t197 29q72 0 118 -27.5t70 -79.5q92 47 200.5 77t201.5 30q125 0 175 -80t50 -215v-723h-250v696q0 41 -18.5 60.5t-61.5 19.5q-23 0 -55.5 -7t-68.5 -18.5t-71.5 -26.5t-64.5 -32v-692h-250v696q0 41 -18.5 60.5t-61.5 19.5 q-47 0 -119.5 -24.5t-140.5 -59.5v-692h-250z" />
<glyph unicode="n" horiz-adv-x="1116" d="M143 0v997h191l24 -84q94 47 203 76t197 29q125 0 175 -80t50 -215v-723h-250v696q0 41 -18.5 60.5t-61.5 19.5q-47 0 -119.5 -24.5t-140.5 -59.5v-692h-250z" />
<glyph unicode="o" horiz-adv-x="1064" d="M98 373v252q0 76 19.5 147.5t69 125.5t133 87t212.5 33t213 -33t133.5 -87t69 -126t19.5 -147v-252q0 -78 -19.5 -148.5t-69 -125t-133 -87t-213.5 -32.5q-129 0 -212.5 32.5t-133 87t-69 125t-19.5 148.5zM348 365q0 -86 42 -129t142 -43t142.5 43t42.5 129v268 q0 86 -42 129t-143 43q-100 0 -142 -43t-42 -129v-268z" />
<glyph unicode="p" horiz-adv-x="1091" d="M143 -438v1435h199l25 -84q66 47 143.5 76t171.5 29q152 0 229.5 -87t77.5 -259v-340q0 -166 -77.5 -259t-252.5 -93q-66 0 -136 8t-130 20v-411zM393 219q49 -10 108.5 -18t112.5 -8q68 0 96.5 32.5t28.5 100.5v352q0 61 -26.5 94t-96.5 33q-61 0 -121.5 -26.5 t-101.5 -63.5v-496z" />
<glyph unicode="q" horiz-adv-x="1081" d="M102 322v292q0 90 17.5 165t68 128.5t139.5 82t234 28.5q76 0 184.5 -8.5t202.5 -26.5v-1386l-250 -35v477q-55 -23 -134 -41t-161 -18q-162 0 -231.5 91t-69.5 251zM352 315q0 -59 29 -90.5t98 -31.5q53 0 112.5 17t106.5 40v547q-35 4 -71.5 6t-77.5 2 q-61 0 -100 -12.5t-60.5 -35t-29 -57t-7.5 -77.5v-308z" />
<glyph unicode="r" horiz-adv-x="681" d="M143 0v997h211l17 -110q20 14 52 32.5t66.5 37t72.5 35t71 26.5l24 -230q-72 -33 -134 -67.5t-130 -77.5v-643h-250z" />
<glyph unicode="s" horiz-adv-x="915" d="M109 37l34 190q63 -18 141 -30.5t156 -12.5q41 0 66.5 5.5t39 16.5t17.5 30.5t4 48.5q0 23 -4 41t-21.5 33.5t-52 28.5t-96.5 28q-92 23 -145 47t-82 59t-37 85t-8 122q0 76 18.5 130t61.5 89t114.5 52.5t178.5 17.5q70 0 151.5 -9.5t147.5 -25.5l-25 -199 q-57 10 -136 19.5t-138 9.5q-82 0 -104.5 -19.5t-22.5 -66.5q0 -31 3 -48t16 -29.5t42 -22t80 -21.5q104 -29 164.5 -52.5t92.5 -56t40 -81.5t8 -125q0 -72 -14.5 -130.5t-53 -98t-109.5 -61t-183 -21.5q-41 0 -86 4t-91.5 12t-89.5 18.5t-77 22.5z" />
<glyph unicode="t" horiz-adv-x="727" d="M31 799v198h149v248l250 35v-283h256l-16 -198h-240v-523q0 -41 20.5 -64.5t69.5 -23.5q29 0 60.5 5.5t64.5 15.5l29 -191q-20 -8 -48 -15t-57.5 -12t-59.5 -8t-54 -3q-274 0 -275 264v555h-149z" />
<glyph unicode="u" horiz-adv-x="1116" d="M133 274v723h250v-696q0 -41 18.5 -60.5t61.5 -19.5q47 0 119.5 24.5t140.5 59.5v692h250v-997h-191l-24 84q-94 -47 -203 -75.5t-197 -28.5q-125 0 -175 79.5t-50 214.5z" />
<glyph unicode="v" horiz-adv-x="989" d="M10 997h256l228 -757l229 757h256l-320 -997h-329z" />
<glyph unicode="w" horiz-adv-x="1441" d="M37 997h233l123 -667l199 667h260l197 -667l122 667h234l-184 -997h-289l-211 717l-211 -717h-289z" />
<glyph unicode="x" horiz-adv-x="958" d="M25 0l321 502l-315 495h250l198 -303l197 303h250l-316 -495l324 -502h-256l-199 309l-200 -309h-254z" />
<glyph unicode="y" horiz-adv-x="978" d="M10 997h256l228 -757l229 757h256l-320 -997l-133 -403h-237l125 403h-88z" />
<glyph unicode="z" horiz-adv-x="942" d="M113 0v193l444 612h-438v192h727v-192l-445 -612h459v-193h-747z" />
<glyph unicode="{" horiz-adv-x="696" d="M92 567v193h41q49 0 67.5 21.5t18.5 60.5v475q0 147 61.5 224t204.5 77h170v-201h-104q-41 0 -61.5 -18.5t-20.5 -65.5v-434q0 -47 -7 -88t-25.5 -72.5t-51.5 -52t-84 -22.5q51 -4 84 -23.5t51.5 -51.5t25.5 -73t7 -88v-434q0 -47 20.5 -65.5t61.5 -18.5h104v-201h-170 q-143 0 -204.5 77t-61.5 224v475q0 39 -18.5 60.5t-67.5 21.5h-41z" />
<glyph unicode="|" horiz-adv-x="522" d="M184 -430v2048h154v-2048h-154z" />
<glyph unicode="}" horiz-adv-x="696" d="M41 -90h104q41 0 61.5 18.5t20.5 65.5v434q0 47 6.5 88t24.5 73t51 51t86 24q-53 2 -86 22.5t-51 52t-24.5 72.5t-6.5 88v434q0 47 -20.5 65.5t-61.5 18.5h-104v201h170q143 0 204.5 -77t61.5 -224v-475q0 -39 18.5 -60.5t67.5 -21.5h41v-193h-41q-49 0 -67.5 -21.5 t-18.5 -60.5v-475q0 -147 -61.5 -224t-204.5 -77h-170v201z" />
<glyph unicode="~" horiz-adv-x="987" d="M72 471q23 57 44 104.5t49 80t67.5 50t99.5 17.5q43 0 84 -21.5t81 -47t78.5 -47t73.5 -21.5q31 0 52.5 13t37 32.5t26.5 44t19 49.5l142 -78q-16 -49 -40 -95t-55.5 -81t-76.5 -55.5t-105 -20.5q-47 0 -89 21.5t-81 46t-71.5 46t-61.5 21.5t-48 -10t-32.5 -28.5t-26 -44 t-26.5 -54.5z" />
<glyph unicode="&#xa1;" horiz-adv-x="581" d="M164 711v286h254v-286h-254zM166 205l51 354h148l51 -354v-608h-250v608z" />
<glyph unicode="&#xa2;" horiz-adv-x="899" d="M113 547v272q0 170 69.5 261t233.5 114v190h172v-184q47 -4 100 -12t98 -23l-30 -204q-51 14 -110.5 20t-96.5 6q-109 0 -148 -37t-39 -129v-276q0 -92 39 -129t148 -37q47 0 100 6t107 21l30 -205q-41 -14 -93 -23.5t-105 -13.5v-184h-172v190q-166 23 -234.5 113 t-68.5 264z" />
<glyph unicode="&#xa3;" horiz-adv-x="1110" d="M123 567v199h166q-20 53 -39 114.5t-19 131.5q0 94 31 157.5t87.5 102.5t135 55t172.5 16q90 0 171 -11t169 -36l-30 -206q-33 8 -74 14t-84 10t-84 7t-76 3q-84 0 -126 -25.5t-42 -103.5q0 -59 19.5 -115.5t42.5 -113.5h385l-15 -199h-335q2 -12 2 -21v-18 q0 -86 -30 -158.5t-97 -150.5h524v-219h-834v219q82 53 134.5 136t52.5 175v37h-207z" />
<glyph unicode="&#xa4;" horiz-adv-x="1153" d="M113 291l137 137q-25 51 -25 119v278q0 66 25 119l-137 137l149 150l152 -154q35 10 74.5 16.5t89.5 6.5q88 0 159 -23l154 154l149 -150l-137 -137q27 -51 27 -119v-278q0 -68 -27 -119l137 -137l-149 -150l-154 154q-72 -23 -159 -23q-49 0 -89 6.5t-75 16.5l-152 -154 zM440 578q0 -68 34 -90.5t104 -22.5q68 0 102.5 22.5t34.5 90.5v217q0 68 -35 90t-102 22q-70 0 -104 -22.5t-34 -89.5v-217z" />
<glyph unicode="&#xa5;" horiz-adv-x="1142" d="M20 1323h275l276 -647l277 647h274l-262 -578h170v-165h-246l-84 -185h330v-159h-330v-236h-258v236h-329v159h329l-84 185h-245v165h170z" />
<glyph unicode="&#xa6;" horiz-adv-x="522" d="M184 424h154v-854h-154v854zM184 764v854h154v-854h-154z" />
<glyph unicode="&#xa7;" horiz-adv-x="1122" d="M113 1130q0 119 68.5 186.5t228.5 67.5q88 0 179 -16t171 -41l-33 -168q-66 16 -148.5 30.5t-144.5 14.5q-57 0 -81.5 -20.5t-24.5 -73.5q0 -102 17 -226t46 -260.5t68 -279.5t82 -285l-195 -59q-45 135 -87 278.5t-74.5 288t-52 287.5t-19.5 276zM373 -326l33 168 q66 -16 148.5 -30.5t143.5 -14.5q57 0 82 20.5t25 73.5q0 100 -17.5 225.5t-46 261.5t-67.5 279.5t-82 284.5l194 59q45 -135 87 -278t75 -287.5t52.5 -288t19.5 -276.5q0 -119 -68.5 -186.5t-228.5 -67.5q-88 0 -179 16.5t-171 40.5z" />
<glyph unicode="&#xa8;" horiz-adv-x="839" d="M123 1135v215h207v-215h-207zM510 1135v215h207v-215h-207z" />
<glyph unicode="&#xa9;" horiz-adv-x="1630" d="M113 682q0 145 50 273t142 223.5t221 150.5t289 55t289 -55t221 -150.5t142.5 -223.5t50.5 -273t-50.5 -273t-142.5 -223.5t-221 -150.5t-289 -55t-289 55t-221 150.5t-142 223.5t-50 273zM287 682q0 -113 36.5 -211t106.5 -171t167 -115t218 -42t219.5 42t167 115 t105 171t36.5 211t-36.5 211t-105 171t-167 115t-219.5 42t-218 -42t-167 -115t-106.5 -171t-36.5 -211zM555 563v238q0 123 64.5 180t218.5 57q53 0 106 -8t100 -24l-22 -150q-86 23 -166 23q-76 0 -96.5 -20.5t-20.5 -74.5v-204q0 -53 20.5 -74t96.5 -21q80 0 166 23 l22 -150q-47 -16 -100 -24t-106 -8q-154 0 -218.5 57t-64.5 180z" />
<glyph unicode="&#xaa;" horiz-adv-x="788" d="M154 958q0 96 43 136.5t141 40.5h149v65q0 53 -21.5 73.5t-96.5 20.5q-43 0 -88 -5t-86 -13l-21 119q45 14 104.5 22t112.5 8q147 0 200.5 -54t53.5 -173v-416h-129l-10 43q-43 -29 -92 -42t-97 -13q-86 0 -124.5 53.5t-38.5 134.5zM305 958q0 -33 13.5 -48t50.5 -15 q35 0 65.5 10t52.5 23v92h-114q-41 0 -54.5 -12.5t-13.5 -49.5z" />
<glyph unicode="&#xab;" horiz-adv-x="1032" d="M72 500l260 395l166 -104l-191 -291l191 -291l-166 -105zM494 500l260 395l166 -104l-191 -291l191 -291l-166 -105z" />
<glyph unicode="&#xac;" horiz-adv-x="1112" d="M123 506v196h835v-522h-204v326h-631z" />
<glyph unicode="&#xad;" horiz-adv-x="761" d="M123 469v209h516v-209h-516z" />
<glyph unicode="&#xae;" horiz-adv-x="964" d="M113 1055q0 78 25.5 145.5t73.5 117.5t115.5 78.5t153.5 28.5t155 -28.5t117 -78.5t73.5 -117.5t25.5 -145.5t-25.5 -145.5t-73.5 -118t-117 -80t-155 -29.5t-153.5 29.5t-115.5 80t-73.5 118t-25.5 145.5zM221 1055q0 -55 15.5 -104.5t48 -86.5t82 -59.5t114.5 -22.5 q66 0 115 22.5t82 59.5t49 86t16 105q0 55 -16 104t-49 86t-82 58.5t-115 21.5t-115 -21.5t-81.5 -58.5t-48 -86t-15.5 -104zM360 893v340h140q111 0 110 -96v-37q0 -59 -47 -82l88 -125h-86l-80 111h-51v-111h-74zM434 1071h62q25 0 33 9.5t8 25.5v24q0 35 -41 35h-62v-94z " />
<glyph unicode="&#xaf;" horiz-adv-x="737" d="M113 1141v166h512v-166h-512z" />
<glyph unicode="&#xb0;" horiz-adv-x="731" d="M102 1083q0 53 18.5 100.5t52.5 83.5t83 56t111 20q61 0 109 -20t82 -56t52.5 -83.5t18.5 -100.5t-18.5 -100t-52.5 -82t-82 -55.5t-109 -20.5t-110.5 20.5t-83.5 55.5t-52.5 82t-18.5 100zM240 1083q0 -55 31.5 -96t95.5 -41q61 0 93 41t32 96q0 59 -31 99.5t-94 40.5 q-66 0 -96.5 -40t-30.5 -100z" />
<glyph unicode="&#xb1;" horiz-adv-x="1142" d="M154 0v188h835v-188h-835zM154 625v196h315v318h205v-318h315v-196h-315v-318h-205v318h-315z" />
<glyph unicode="&#xb2;" horiz-adv-x="819" d="M133 1303q49 16 123 28t143 12q147 0 205 -56t58 -167v-35q0 -31 -2.5 -56t-11.5 -53t-28.5 -60.5t-56.5 -75.5q-31 -37 -52.5 -61.5t-38.5 -44t-32.5 -37t-36.5 -40.5h273v-159h-529v141q25 27 44.5 47.5t40 44t47 51t63.5 68.5q51 55 77.5 88t39 54.5t14.5 34.5t2 32 v37q0 45 -18.5 61.5t-75.5 16.5q-43 0 -105.5 -9.5t-109.5 -21.5z" />
<glyph unicode="&#xb3;" horiz-adv-x="811" d="M154 510l14 141q61 -10 116.5 -13t112.5 -3q59 0 74.5 19.5t15.5 54.5v63q0 41 -20.5 56.5t-60.5 15.5h-203v141h192q47 0 62.5 19.5t15.5 48.5v63q0 43 -21.5 59.5t-86.5 16.5q-43 0 -97.5 -5t-87.5 -9l-16 141q41 10 100.5 17t108.5 7q158 0 219 -53t61 -153v-62 q0 -55 -16 -90t-76 -65q66 -23 86.5 -60t20.5 -104v-54q0 -51 -12.5 -92t-44 -69.5t-86 -44t-138.5 -15.5q-59 0 -125.5 8.5t-107.5 20.5z" />
<glyph unicode="&#xb4;" horiz-adv-x="643" d="M123 1243q72 45 146.5 94t152.5 107l98 -152q-86 -57 -155.5 -100t-151.5 -88z" />
<glyph unicode="&#xb5;" horiz-adv-x="1116" d="M133 -403v1400h250v-696q0 -41 18.5 -60.5t61.5 -19.5q47 0 119.5 24.5t140.5 59.5v692h250v-997h-191l-24 84q-88 -43 -188.5 -71.5t-186.5 -32.5v-383h-250z" />
<glyph unicode="&#xb6;" horiz-adv-x="1077" d="M92 915q0 96 35 178.5t95.5 142.5t142 94t178.5 34v-895q-96 0 -178 34t-142.5 93t-95.5 141t-35 178zM473 -287q84 80 131 125t69.5 73t27 47t4.5 44v1362h198v-1387q0 -45 -9 -76.5t-41 -71.5t-93.5 -98.5t-165.5 -154.5z" />
<glyph unicode="&#xb7;" horiz-adv-x="561" d="M154 524v287h254v-287h-254z" />
<glyph unicode="&#xb8;" horiz-adv-x="614" d="M113 -379l20 96q27 -8 65 -13t68 -5q61 0 81 15.5t20 43.5q0 27 -17.5 38t-60.5 11q-10 0 -29.5 -1t-34.5 -3l-59 29l43 199h117l-27 -140q12 2 27.5 3.5t29.5 1.5q74 2 110 -38.5t36 -101.5q0 -74 -52.5 -120t-166.5 -46q-35 0 -85.5 8.5t-84.5 22.5z" />
<glyph unicode="&#xb9;" horiz-adv-x="710" d="M92 1171l277 152h147v-829h-186v616l-170 -84z" />
<glyph unicode="&#xba;" horiz-adv-x="792" d="M123 1018v160q0 49 12 93t43 78.5t84 55t133 20.5q82 0 135.5 -20.5t84 -55t43 -78.5t12.5 -93v-160q0 -49 -12.5 -93t-43 -79t-84 -55.5t-135.5 -20.5q-80 0 -133 20.5t-84 55.5t-43 79t-12 93zM281 1014q0 -53 25.5 -81t88.5 -28t90 28t27 81v168q0 53 -26.5 80.5 t-90.5 27.5q-63 0 -88.5 -27.5t-25.5 -80.5v-168z" />
<glyph unicode="&#xbb;" horiz-adv-x="1032" d="M113 209l190 291l-190 291l166 104l260 -395l-260 -396zM535 209l190 291l-190 291l165 104l261 -395l-261 -396z" />
<glyph unicode="&#xbc;" horiz-adv-x="1757" d="M102 1171l277 152h147v-829h-186v616l-170 -84zM455 -20l612 1425l141 -62l-610 -1425zM961 166v135l299 528h253v-518h121v-145h-121v-166h-178v166h-374zM1145 311h190v361z" />
<glyph unicode="&#xbd;" horiz-adv-x="1810" d="M102 1171l277 152h147v-829h-186v616l-170 -84zM455 -20l612 1425l141 -62l-610 -1425zM1104 805q49 16 122.5 28.5t143.5 12.5q147 0 204.5 -56.5t57.5 -166.5v-35q0 -31 -2 -56.5t-11 -53t-28.5 -60.5t-56.5 -76q-31 -37 -52.5 -61.5t-39 -44t-32.5 -37t-36 -39.5h273 v-160h-529v141q25 27 44.5 47.5t40 44t47 51t63.5 68.5q51 55 77.5 88t39 54.5t14.5 35t2 31.5v37q0 45 -18.5 61.5t-75.5 16.5q-43 0 -105.5 -9.5t-109.5 -21.5z" />
<glyph unicode="&#xbe;" horiz-adv-x="1824" d="M154 510l14 141q61 -10 116.5 -13t112.5 -3q59 0 74.5 19.5t15.5 54.5v63q0 41 -20.5 56.5t-60.5 15.5h-203v141h192q47 0 62.5 19.5t15.5 48.5v63q0 43 -21.5 59.5t-86.5 16.5q-43 0 -97.5 -5t-87.5 -9l-16 141q41 10 100.5 17t108.5 7q158 0 219 -53t61 -153v-62 q0 -55 -16 -90t-76 -65q66 -23 86.5 -60t20.5 -104v-54q0 -51 -12.5 -92t-44 -69.5t-86 -44t-138.5 -15.5q-59 0 -125.5 8.5t-107.5 20.5zM522 -20l613 1425l141 -62l-610 -1425zM1028 166v135l299 528h254v-518h121v-145h-121v-166h-178v166h-375zM1212 311h191v361z" />
<glyph unicode="&#xbf;" d="M113 -43q0 74 4 126t20.5 97t49 85t92.5 89q33 27 61.5 49.5t58 46t62.5 48t76 57.5l141 -190q-49 -39 -91 -72t-98 -78q-45 -37 -70.5 -61.5t-37.5 -50t-15.5 -56.5t-3.5 -76q0 -49 8.5 -81.5t31 -52t64.5 -29t107 -9.5q66 0 146 10.5t147 26.5l37 -215 q-78 -20 -172 -32.5t-184 -12.5q-133 0 -217 23.5t-132 70.5t-66.5 119t-18.5 168zM451 711v286h254v-286h-254z" />
<glyph unicode="&#xc0;" horiz-adv-x="1323" d="M51 0l430 1364h361l430 -1364h-271l-88 283h-505l-86 -283h-271zM410 1622l98 152q59 -47 129 -92.5t141 -90.5l-90 -139q-82 43 -145.5 81t-132.5 89zM471 506h377l-186 645z" />
<glyph unicode="&#xc1;" horiz-adv-x="1323" d="M51 0l430 1364h361l430 -1364h-271l-88 283h-505l-86 -283h-271zM471 506h377l-186 645zM561 1591q72 45 141.5 90t131.5 93l96 -152q-70 -51 -132.5 -89t-146.5 -81z" />
<glyph unicode="&#xc2;" horiz-adv-x="1323" d="M51 0l430 1364h361l430 -1364h-271l-88 283h-505l-86 -283h-271zM401 1567q72 47 130.5 90t130.5 96q70 -53 128 -95t132 -91l-70 -115q-59 27 -99 48.5t-91 51.5q-51 -29 -91.5 -50t-97.5 -50zM471 506h377l-186 645z" />
<glyph unicode="&#xc3;" horiz-adv-x="1323" d="M51 0l430 1364h361l430 -1364h-271l-88 283h-505l-86 -283h-271zM340 1556q35 63 86 111.5t117 48.5q35 0 63.5 -9t65.5 -32t60.5 -34t45.5 -11q33 0 51.5 18.5t32.5 57.5l119 -61q-27 -80 -79 -126t-124 -46q-41 0 -69.5 8.5t-61.5 31.5q-29 18 -50.5 30.5t-49.5 12.5 q-35 0 -59.5 -27.5t-45.5 -55.5zM471 506h377l-186 645z" />
<glyph unicode="&#xc4;" horiz-adv-x="1323" d="M51 0l430 1364h361l430 -1364h-271l-88 283h-505l-86 -283h-271zM360 1487v199h209v-199h-209zM471 506h377l-186 645zM756 1487v199h209v-199h-209z" />
<glyph unicode="&#xc5;" horiz-adv-x="1323" d="M51 0l430 1364h361l430 -1364h-271l-88 283h-505l-86 -283h-271zM471 506h377l-186 645zM494 1602q0 68 45 114.5t123 46.5t122.5 -46.5t44.5 -114.5q0 -66 -45 -113t-122 -47q-78 0 -123 44t-45 116zM594 1602q0 -31 17.5 -50.5t50.5 -19.5t50 19.5t17 50.5q0 72 -67 71 q-68 0 -68 -71z" />
<glyph unicode="&#xc6;" horiz-adv-x="1765" d="M51 0l430 1364h1172v-227h-740l105 -330h590v-227h-518l110 -353h453v-227h-652l-88 283h-505l-86 -283h-271zM471 506h377l-186 645z" />
<glyph unicode="&#xc7;" horiz-adv-x="1071" d="M123 375v614q0 188 114.5 291.5t370.5 103.5q96 0 190.5 -11t180.5 -34l-29 -223q-84 16 -173 25.5t-161 9.5q-133 0 -184 -49t-51 -158v-524q0 -109 51 -158t184 -49q72 0 161 9t173 26l29 -223q-78 -20 -165 -31.5t-175 -13.5l-16 -89q12 2 27.5 3.5t29.5 1.5 q74 2 109.5 -38.5t35.5 -101.5q0 -74 -52 -120t-167 -46q-35 0 -85 8.5t-85 22.5l21 96q27 -8 64.5 -13t68.5 -5q61 0 80.5 15.5t19.5 43.5q0 27 -17.5 38t-60.5 11q-10 0 -29.5 -1t-33.5 -3l-60 29l33 152q-209 16 -304 118.5t-95 272.5z" />
<glyph unicode="&#xc8;" horiz-adv-x="1101" d="M154 0v1364h835v-227h-577v-330h532v-227h-532v-353h577v-227h-835zM334 1622l98 152q59 -47 129 -92.5t141 -90.5l-90 -139q-82 43 -145.5 81t-132.5 89z" />
<glyph unicode="&#xc9;" horiz-adv-x="1101" d="M154 0v1364h835v-227h-577v-330h532v-227h-532v-353h577v-227h-835zM438 1591q72 45 141.5 90t131.5 93l96 -152q-70 -51 -132.5 -89t-146.5 -81z" />
<glyph unicode="&#xca;" horiz-adv-x="1101" d="M154 0v1364h835v-227h-577v-330h532v-227h-532v-353h577v-227h-835zM324 1567q72 47 130 90t130 96q70 -53 128 -95t132 -91l-70 -115q-59 27 -99 48.5t-91 51.5q-51 -29 -91 -50t-98 -50z" />
<glyph unicode="&#xcb;" horiz-adv-x="1101" d="M154 0v1364h835v-227h-577v-330h532v-227h-532v-353h577v-227h-835zM256 1487v199h209v-199h-209zM651 1487v199h209v-199h-209z" />
<glyph unicode="&#xcc;" horiz-adv-x="585" d="M27 1622l98 152q59 -47 129 -92.5t141 -90.5l-90 -139q-82 43 -145.5 81t-132.5 89zM164 0v1364h258v-1364h-258z" />
<glyph unicode="&#xcd;" horiz-adv-x="585" d="M164 0v1364h258v-1364h-258zM190 1591q72 45 141.5 90t131.5 93l96 -152q-70 -51 -132 -89t-146 -81z" />
<glyph unicode="&#xce;" horiz-adv-x="585" d="M33 1567q72 47 130 90t130 96q70 -53 128 -95t132 -91l-70 -115q-59 27 -99 48.5t-91 51.5q-51 -29 -91 -50t-98 -50zM164 0v1364h258v-1364h-258z" />
<glyph unicode="&#xcf;" horiz-adv-x="585" d="M-8 1487v199h209v-199h-209zM164 0v1364h258v-1364h-258zM387 1487v199h209v-199h-209z" />
<glyph unicode="&#xd0;" horiz-adv-x="1306" d="M82 586v207h141v571h508q125 0 212 -29.5t140.5 -80t77 -117t23.5 -140.5v-630q0 -74 -23.5 -139.5t-77 -117t-140.5 -81t-212 -29.5h-508v586h-141zM481 227h224q131 0 176 51.5t45 149.5v508q0 98 -45 149.5t-176 51.5h-224v-344h209v-207h-209v-359z" />
<glyph unicode="&#xd1;" horiz-adv-x="1421" d="M154 0v1364h344l518 -1036v1036h252v-1364h-344l-518 1034v-1034h-252zM387 1556q35 63 86 111.5t117 48.5q35 0 63.5 -9t65.5 -32t60.5 -34t45.5 -11q33 0 51.5 18.5t32.5 57.5l119 -61q-27 -80 -79 -126t-124 -46q-41 0 -69.5 8.5t-61.5 31.5q-29 18 -50 30.5t-50 12.5 q-35 0 -59.5 -27.5t-45.5 -55.5z" />
<glyph unicode="&#xd2;" horiz-adv-x="1277" d="M123 399v566q0 86 26.5 161.5t87 133t159 91t243.5 33.5q143 0 242.5 -33.5t160 -91t87 -133t26.5 -161.5v-566q0 -86 -26.5 -161.5t-87 -133t-160 -91t-242.5 -33.5q-145 0 -243.5 33.5t-159 91t-87 133t-26.5 161.5zM360 1622l99 152q59 -47 128.5 -92.5t141.5 -90.5 l-90 -139q-82 43 -145.5 81t-133.5 89zM381 414q0 -96 56.5 -151.5t201.5 -55.5q143 0 200.5 55t57.5 152v536q0 96 -57.5 151.5t-200.5 55.5q-145 0 -201.5 -55t-56.5 -152v-536z" />
<glyph unicode="&#xd3;" horiz-adv-x="1277" d="M123 399v566q0 86 26.5 161.5t87 133t159 91t243.5 33.5q143 0 242.5 -33.5t160 -91t87 -133t26.5 -161.5v-566q0 -86 -26.5 -161.5t-87 -133t-160 -91t-242.5 -33.5q-145 0 -243.5 33.5t-159 91t-87 133t-26.5 161.5zM381 414q0 -96 56.5 -151.5t201.5 -55.5 q143 0 200.5 55t57.5 152v536q0 96 -57.5 151.5t-200.5 55.5q-145 0 -201.5 -55t-56.5 -152v-536zM512 1591q72 45 141.5 90t130.5 93l97 -152q-70 -51 -132.5 -89t-146.5 -81z" />
<glyph unicode="&#xd4;" horiz-adv-x="1277" d="M123 399v566q0 86 26.5 161.5t87 133t159 91t243.5 33.5q143 0 242.5 -33.5t160 -91t87 -133t26.5 -161.5v-566q0 -86 -26.5 -161.5t-87 -133t-160 -91t-242.5 -33.5q-145 0 -243.5 33.5t-159 91t-87 133t-26.5 161.5zM379 1567q72 47 130 90t130 96q70 -53 128 -95 t132 -91l-70 -115q-59 27 -99 48.5t-91 51.5q-51 -29 -91 -50t-97 -50zM381 414q0 -96 56.5 -151.5t201.5 -55.5q143 0 200.5 55t57.5 152v536q0 96 -57.5 151.5t-200.5 55.5q-145 0 -201.5 -55t-56.5 -152v-536z" />
<glyph unicode="&#xd5;" horiz-adv-x="1277" d="M123 399v566q0 86 26.5 161.5t87 133t159 91t243.5 33.5q143 0 242.5 -33.5t160 -91t87 -133t26.5 -161.5v-566q0 -86 -26.5 -161.5t-87 -133t-160 -91t-242.5 -33.5q-145 0 -243.5 33.5t-159 91t-87 133t-26.5 161.5zM307 1556q35 63 86 111.5t117 48.5q35 0 63.5 -9 t65.5 -32t60.5 -34t45.5 -11q33 0 51.5 18.5t32.5 57.5l119 -61q-27 -80 -79 -126t-124 -46q-41 0 -69.5 8.5t-61.5 31.5q-29 18 -50 30.5t-50 12.5q-35 0 -59.5 -27.5t-44.5 -55.5zM381 414q0 -96 56.5 -151.5t201.5 -55.5q143 0 200.5 55t57.5 152v536q0 96 -57.5 151.5 t-200.5 55.5q-145 0 -201.5 -55t-56.5 -152v-536z" />
<glyph unicode="&#xd6;" horiz-adv-x="1277" d="M123 399v566q0 86 26.5 161.5t87 133t159 91t243.5 33.5q143 0 242.5 -33.5t160 -91t87 -133t26.5 -161.5v-566q0 -86 -26.5 -161.5t-87 -133t-160 -91t-242.5 -33.5q-145 0 -243.5 33.5t-159 91t-87 133t-26.5 161.5zM336 1487v199h209v-199h-209zM381 414 q0 -96 56.5 -151.5t201.5 -55.5q143 0 200.5 55t57.5 152v536q0 96 -57.5 151.5t-200.5 55.5q-145 0 -201.5 -55t-56.5 -152v-536zM731 1487v199h209v-199h-209z" />
<glyph unicode="&#xd7;" horiz-adv-x="1013" d="M123 252l239 240l-239 237l145 145l238 -239l239 239l146 -145l-240 -237l240 -240l-146 -146l-239 240l-238 -240z" />
<glyph unicode="&#xd8;" horiz-adv-x="1277" d="M123 -61l104 174q-55 57 -79.5 130.5t-24.5 155.5v566q0 86 26.5 161.5t87 133t159 91t243.5 33.5q98 0 175 -16t136 -45l99 164l106 -62l-104 -176q55 -57 79.5 -129.5t24.5 -154.5v-566q0 -86 -26.5 -161.5t-87 -133t-160 -91t-242.5 -33.5q-100 0 -177 16t-134 45 l-99 -164zM381 394.5q0 -9.5 2 -19.5l442 739q-66 43 -186 43q-145 0 -201.5 -55t-56.5 -152v-536v-19.5zM453 250q61 -43 186 -43q143 0 200.5 55t57.5 152v536v19.5t-2 19.5z" />
<glyph unicode="&#xd9;" horiz-adv-x="1294" d="M143 395v969h258v-948q0 -100 54.5 -154.5t191.5 -54.5t191.5 54t54.5 155v948h258v-969q0 -80 -24.5 -155.5t-83 -133t-155.5 -92t-241 -34.5q-143 0 -240.5 34.5t-155.5 92t-83 133t-25 155.5zM397 1622l99 152q59 -47 128.5 -92.5t141.5 -90.5l-90 -139 q-82 43 -145.5 81t-133.5 89z" />
<glyph unicode="&#xda;" horiz-adv-x="1294" d="M143 395v969h258v-948q0 -100 54.5 -154.5t191.5 -54.5t191.5 54t54.5 155v948h258v-969q0 -80 -24.5 -155.5t-83 -133t-155.5 -92t-241 -34.5q-143 0 -240.5 34.5t-155.5 92t-83 133t-25 155.5zM504 1591q72 45 141.5 90t130.5 93l96 -152q-70 -51 -132 -89t-146 -81z " />
<glyph unicode="&#xdb;" horiz-adv-x="1294" d="M143 395v969h258v-948q0 -100 54.5 -154.5t191.5 -54.5t191.5 54t54.5 155v948h258v-969q0 -80 -24.5 -155.5t-83 -133t-155.5 -92t-241 -34.5q-143 0 -240.5 34.5t-155.5 92t-83 133t-25 155.5zM387 1567q72 47 130 90t130 96q70 -53 128.5 -95t131.5 -91l-69 -115 q-59 27 -99.5 48.5t-91.5 51.5q-51 -29 -91 -50t-97 -50z" />
<glyph unicode="&#xdc;" horiz-adv-x="1294" d="M143 395v969h258v-948q0 -100 54.5 -154.5t191.5 -54.5t191.5 54t54.5 155v948h258v-969q0 -80 -24.5 -155.5t-83 -133t-155.5 -92t-241 -34.5q-143 0 -240.5 34.5t-155.5 92t-83 133t-25 155.5zM346 1487v199h209v-199h-209zM741 1487v199h209v-199h-209z" />
<glyph unicode="&#xdd;" horiz-adv-x="1159" d="M10 1364h275l295 -688l294 688h275l-440 -969v-395h-258v395zM453 1591q72 45 141.5 90t130.5 93l96 -152q-70 -51 -132 -89t-146 -81z" />
<glyph unicode="&#xde;" horiz-adv-x="1179" d="M154 0v1364h258v-217h274q236 0 334 -94.5t98 -274.5v-186q0 -178 -103.5 -272.5t-340.5 -94.5h-262v-225h-258zM412 453h260q109 0 148.5 41t39.5 124v140q0 86 -41 124t-147 38h-260v-467z" />
<glyph unicode="&#xdf;" horiz-adv-x="1253" d="M143 0v1067q0 188 115 283.5t324 95.5q217 0 326.5 -91t109.5 -247q0 -55 -15.5 -109.5t-64.5 -136.5q-25 -41 -40 -67.5t-22.5 -44t-10.5 -29.5t-3 -25q0 -10 3 -22t16.5 -29.5t38 -41t67.5 -58.5q61 -53 98 -86t56.5 -62.5t24.5 -61.5t5 -81q0 -70 -15 -121t-52 -85 t-98.5 -51t-153.5 -17q-47 0 -122 9t-132 27l29 191q18 -6 45.5 -10t55.5 -7.5t54.5 -5.5t42.5 -2q55 0 76 15.5t21 56.5q0 20 -3.5 33.5t-17.5 29t-44 39t-81 64.5q-53 43 -85 74.5t-49 61.5t-23.5 59.5t-6.5 68.5q0 27 4.5 48.5t12.5 45t22.5 50t34.5 61.5 q29 49 45.5 80.5t24.5 55.5t10 41t2 38q0 61 -46 97t-136 36q-92 0 -142.5 -41t-50.5 -139v-1057h-250z" />
<glyph unicode="&#xe0;" d="M102 276q0 154 69 217.5t222 63.5h240v105q0 41 -7.5 69.5t-27.5 46t-58 25.5t-98 8q-68 0 -139.5 -8t-136.5 -23l-31 191q72 23 165 35t177 12q117 0 196 -21.5t125 -65.5t65.5 -111.5t19.5 -162.5v-657h-205l-19 68q-68 -45 -144.5 -66.5t-152.5 -21.5 q-137 0 -198.5 83.5t-61.5 212.5zM268 1292l99 152q78 -57 152.5 -106.5t146.5 -94.5l-93 -139q-80 45 -149.5 88t-155.5 100zM344 279q0 -53 20.5 -77t79.5 -24q55 0 104.5 15.5t84.5 35.5v148h-184q-61 0 -83 -20.5t-22 -77.5z" />
<glyph unicode="&#xe1;" d="M102 276q0 154 69 217.5t222 63.5h240v105q0 41 -7.5 69.5t-27.5 46t-58 25.5t-98 8q-68 0 -139.5 -8t-136.5 -23l-31 191q72 23 165 35t177 12q117 0 196 -21.5t125 -65.5t65.5 -111.5t19.5 -162.5v-657h-205l-19 68q-68 -45 -144.5 -66.5t-152.5 -21.5 q-137 0 -198.5 83.5t-61.5 212.5zM344 279q0 -53 20.5 -77t79.5 -24q55 0 104.5 15.5t84.5 35.5v148h-184q-61 0 -83 -20.5t-22 -77.5zM344 1243q72 45 146.5 94t152.5 107l98 -152q-86 -57 -155.5 -100t-151.5 -88z" />
<glyph unicode="&#xe2;" d="M102 276q0 154 69 217.5t222 63.5h240v105q0 41 -7.5 69.5t-27.5 46t-58 25.5t-98 8q-68 0 -139.5 -8t-136.5 -23l-31 191q72 23 165 35t177 12q117 0 196 -21.5t125 -65.5t65.5 -111.5t19.5 -162.5v-657h-205l-19 68q-68 -45 -144.5 -66.5t-152.5 -21.5 q-137 0 -198.5 83.5t-61.5 212.5zM231 1202q68 49 141.5 106.5t145.5 116.5q70 -57 142.5 -114.5t142.5 -108.5l-78 -110q-35 20 -61.5 36.5t-50 32t-46 30.5t-49.5 34q-27 -18 -49.5 -33.5t-46 -31t-51 -32t-60.5 -36.5zM344 279q0 -53 20.5 -77t79.5 -24q55 0 104.5 15.5 t84.5 35.5v148h-184q-61 0 -83 -20.5t-22 -77.5z" />
<glyph unicode="&#xe3;" d="M102 276q0 154 69 217.5t222 63.5h240v105q0 41 -7.5 69.5t-27.5 46t-58 25.5t-98 8q-68 0 -139.5 -8t-136.5 -23l-31 191q72 23 165 35t177 12q117 0 196 -21.5t125 -65.5t65.5 -111.5t19.5 -162.5v-657h-205l-19 68q-68 -45 -144.5 -66.5t-152.5 -21.5 q-137 0 -198.5 83.5t-61.5 212.5zM188 1206q35 61 86.5 109.5t116.5 48.5q35 0 63.5 -9t65.5 -32t60.5 -33t46.5 -10q33 0 51 18.5t33 57.5l118 -62q-27 -80 -79 -126t-123 -46q-41 0 -69.5 9.5t-61.5 29.5q-29 20 -50.5 31.5t-50.5 11.5q-35 0 -59.5 -27.5t-44.5 -54.5z M344 279q0 -53 20.5 -77t79.5 -24q55 0 104.5 15.5t84.5 35.5v148h-184q-61 0 -83 -20.5t-22 -77.5z" />
<glyph unicode="&#xe4;" d="M102 276q0 154 69 217.5t222 63.5h240v105q0 41 -7.5 69.5t-27.5 46t-58 25.5t-98 8q-68 0 -139.5 -8t-136.5 -23l-31 191q72 23 165 35t177 12q117 0 196 -21.5t125 -65.5t65.5 -111.5t19.5 -162.5v-657h-205l-19 68q-68 -45 -144.5 -66.5t-152.5 -21.5 q-137 0 -198.5 83.5t-61.5 212.5zM221 1135v215h207v-215h-207zM344 279q0 -53 20.5 -77t79.5 -24q55 0 104.5 15.5t84.5 35.5v148h-184q-61 0 -83 -20.5t-22 -77.5zM608 1135v215h207v-215h-207z" />
<glyph unicode="&#xe5;" d="M102 276q0 154 69 217.5t222 63.5h240v105q0 41 -7.5 69.5t-27.5 46t-58 25.5t-98 8q-68 0 -139.5 -8t-136.5 -23l-31 191q72 23 165 35t177 12q117 0 196 -21.5t125 -65.5t65.5 -111.5t19.5 -162.5v-657h-205l-19 68q-68 -45 -144.5 -66.5t-152.5 -21.5 q-137 0 -198.5 83.5t-61.5 212.5zM322 1270q0 72 47 123t135 51q90 0 136 -51t46 -123t-46 -124t-136 -52q-88 0 -135 49t-47 127zM344 279q0 -53 20.5 -77t79.5 -24q55 0 104.5 15.5t84.5 35.5v148h-184q-61 0 -83 -20.5t-22 -77.5zM430 1270q0 -35 19.5 -57.5t54.5 -22.5 t54.5 22.5t19.5 57.5t-19.5 56.5t-54.5 21.5t-54.5 -21.5t-19.5 -56.5z" />
<glyph unicode="&#xe6;" horiz-adv-x="1519" d="M102 276q0 154 69 217.5t222 63.5h240v105q0 41 -7.5 69.5t-27.5 46t-58 25.5t-98 8q-68 0 -139.5 -8t-136.5 -23l-31 191q72 23 165 35t177 12q104 0 171 -25.5t126 -66.5q51 37 115.5 64.5t157.5 27.5q119 0 195.5 -33t119.5 -88t59.5 -128t16.5 -153v-213h-555v-51 q0 -92 40 -130t154 -38q72 0 147.5 11.5t157.5 35.5l39 -188q-86 -33 -181 -48t-185 -15q-117 0 -197 25.5t-131 74.5q-68 -43 -156 -71.5t-186 -28.5q-150 0 -216.5 83.5t-66.5 212.5zM344 279q0 -53 20.5 -77t79.5 -24q61 0 113.5 16.5t87.5 36.5q-12 57 -12 134v12h-184 q-61 0 -83 -20.5t-22 -77.5zM883 604h317v49q0 72 -29.5 116t-121.5 44t-129 -44t-37 -116v-49z" />
<glyph unicode="&#xe7;" horiz-adv-x="858" d="M98 362v273q0 100 23.5 173t75 119t133.5 68.5t198 22.5q53 0 121 -9.5t123 -27.5l-31 -205q-51 14 -110.5 20.5t-95.5 6.5q-109 0 -148 -37t-39 -129v-277q0 -92 39 -128.5t148 -36.5q47 0 100 6t106 20l31 -205q-49 -16 -115.5 -26t-128.5 -10h-6l-16 -89 q12 2 27.5 3.5t29.5 1.5q74 2 110 -38.5t36 -101.5q0 -74 -52.5 -120t-167.5 -46q-35 0 -85 8.5t-85 22.5l21 96q27 -8 64.5 -13t68.5 -5q61 0 80.5 15.5t19.5 43.5q0 27 -17 38t-60 11q-10 0 -30 -1t-34 -3l-59 29l33 156q-166 20 -237 110t-71 264z" />
<glyph unicode="&#xe8;" horiz-adv-x="985" d="M98 365v264q0 80 19.5 150.5t67.5 123.5t127 84t200 31q119 0 195.5 -33t119.5 -88t59.5 -128t16.5 -153v-213h-555v-51q0 -92 40 -130t155 -38q72 0 147.5 11.5t157.5 35.5l39 -188q-86 -33 -181.5 -48t-185.5 -15q-117 0 -197.5 26.5t-131 75.5t-72 120.5t-21.5 162.5z M246 1292l98 152q78 -57 152.5 -106.5t146.5 -94.5l-92 -139q-80 45 -149.5 88t-155.5 100zM348 604h318v49q0 72 -30 116t-122 44t-129 -44t-37 -116v-49z" />
<glyph unicode="&#xe9;" horiz-adv-x="985" d="M98 365v264q0 80 19.5 150.5t67.5 123.5t127 84t200 31q119 0 195.5 -33t119.5 -88t59.5 -128t16.5 -153v-213h-555v-51q0 -92 40 -130t155 -38q72 0 147.5 11.5t157.5 35.5l39 -188q-86 -33 -181.5 -48t-185.5 -15q-117 0 -197.5 26.5t-131 75.5t-72 120.5t-21.5 162.5z M338 1243q72 45 146.5 94t152.5 107l98 -152q-86 -57 -155.5 -100t-151.5 -88zM348 604h318v49q0 72 -30 116t-122 44t-129 -44t-37 -116v-49z" />
<glyph unicode="&#xea;" horiz-adv-x="985" d="M98 365v264q0 80 19.5 150.5t67.5 123.5t127 84t200 31q119 0 195.5 -33t119.5 -88t59.5 -128t16.5 -153v-213h-555v-51q0 -92 40 -130t155 -38q72 0 147.5 11.5t157.5 35.5l39 -188q-86 -33 -181.5 -48t-185.5 -15q-117 0 -197.5 26.5t-131 75.5t-72 120.5t-21.5 162.5z M223 1202q68 49 141.5 106.5t145.5 116.5q70 -57 142.5 -114.5t142.5 -108.5l-78 -110q-35 20 -61.5 36.5t-50 32t-46 30.5t-49.5 34q-27 -18 -49.5 -33.5t-46 -31t-51 -32t-60.5 -36.5zM348 604h318v49q0 72 -30 116t-122 44t-129 -44t-37 -116v-49z" />
<glyph unicode="&#xeb;" horiz-adv-x="985" d="M98 365v264q0 80 19.5 150.5t67.5 123.5t127 84t200 31q119 0 195.5 -33t119.5 -88t59.5 -128t16.5 -153v-213h-555v-51q0 -92 40 -130t155 -38q72 0 147.5 11.5t157.5 35.5l39 -188q-86 -33 -181.5 -48t-185.5 -15q-117 0 -197.5 26.5t-131 75.5t-72 120.5t-21.5 162.5z M217 1135v215h207v-215h-207zM348 604h318v49q0 72 -30 116t-122 44t-129 -44t-37 -116v-49zM604 1135v215h207v-215h-207z" />
<glyph unicode="&#xec;" horiz-adv-x="536" d="M-25 1292l99 152q78 -57 152.5 -106.5t146.5 -94.5l-92 -139q-80 45 -150 88t-156 100zM143 0v997h250v-997h-250z" />
<glyph unicode="&#xed;" horiz-adv-x="536" d="M143 0v997h250v-997h-250zM170 1243q72 45 146.5 94t152.5 107l98 -152q-86 -57 -155.5 -100t-151.5 -88z" />
<glyph unicode="&#xee;" horiz-adv-x="536" d="M-16 1202q68 49 141.5 106.5t144.5 116.5q70 -57 142.5 -114.5t142.5 -108.5l-78 -110q-35 20 -61.5 36.5t-50 32t-46 30.5t-49.5 34q-27 -18 -49 -33.5t-45.5 -31t-51.5 -32t-61 -36.5zM143 0v997h250v-997h-250z" />
<glyph unicode="&#xef;" horiz-adv-x="536" d="M-29 1135v215h207v-215h-207zM143 0v997h250v-997h-250zM358 1135v215h207v-215h-207z" />
<glyph unicode="&#xf0;" horiz-adv-x="1032" d="M102 322v143q0 92 16.5 162.5t56.5 118t104.5 71t160.5 23.5q53 0 105.5 -10.5t111.5 -32.5q-2 98 -31.5 159.5t-88.5 108.5l-168 -131l-78 90l137 109q-49 23 -107.5 40t-119.5 33l43 197q104 -16 188 -44t168 -75l119 92l78 -88l-95 -74q51 -43 89 -88t65 -101t40 -128 t13 -168v-387q0 -78 -17.5 -143.5t-61.5 -114.5t-121.5 -76.5t-200.5 -27.5t-202 24.5t-124 69.5t-62.5 107.5t-17.5 140.5zM348 340q0 -43 6 -70.5t23.5 -45t48.5 -24.5t78 -7t76.5 7t47 25.5t24.5 50t7 80.5v224q-45 25 -91 36t-91 11q-66 0 -97.5 -30t-31.5 -101v-156z " />
<glyph unicode="&#xf1;" horiz-adv-x="1116" d="M143 0v997h191l24 -84q94 47 203 76t197 29q125 0 175 -80t50 -215v-723h-250v696q0 41 -18.5 60.5t-61.5 19.5q-47 0 -119.5 -24.5t-140.5 -59.5v-692h-250zM240 1206q35 61 86 109.5t116 48.5q35 0 64 -9t65 -32q37 -23 60.5 -33t46.5 -10q33 0 51.5 18.5t32.5 57.5 l119 -62q-27 -80 -79 -126t-124 -46q-41 0 -69.5 9.5t-61.5 29.5q-29 20 -50.5 31.5t-50.5 11.5q-35 0 -59.5 -27.5t-44.5 -54.5z" />
<glyph unicode="&#xf2;" horiz-adv-x="1064" d="M98 373v252q0 76 19.5 147.5t69 125.5t133 87t212.5 33t213 -33t133.5 -87t69 -126t19.5 -147v-252q0 -78 -19.5 -148.5t-69 -125t-133 -87t-213.5 -32.5q-129 0 -212.5 32.5t-133 87t-69 125t-19.5 148.5zM260 1292l98 152q78 -57 153 -106.5t146 -94.5l-92 -139 q-80 45 -149.5 88t-155.5 100zM348 365q0 -86 42 -129t142 -43t142.5 43t42.5 129v268q0 86 -42 129t-143 43q-100 0 -142 -43t-42 -129v-268z" />
<glyph unicode="&#xf3;" horiz-adv-x="1064" d="M98 373v252q0 76 19.5 147.5t69 125.5t133 87t212.5 33t213 -33t133.5 -87t69 -126t19.5 -147v-252q0 -78 -19.5 -148.5t-69 -125t-133 -87t-213.5 -32.5q-129 0 -212.5 32.5t-133 87t-69 125t-19.5 148.5zM348 365q0 -86 42 -129t142 -43t142.5 43t42.5 129v268 q0 86 -42 129t-143 43q-100 0 -142 -43t-42 -129v-268zM391 1243q72 45 146.5 94t152.5 107l98 -152q-86 -57 -155.5 -100t-151.5 -88z" />
<glyph unicode="&#xf4;" horiz-adv-x="1064" d="M98 373v252q0 76 19.5 147.5t69 125.5t133 87t212.5 33t213 -33t133.5 -87t69 -126t19.5 -147v-252q0 -78 -19.5 -148.5t-69 -125t-133 -87t-213.5 -32.5q-129 0 -212.5 32.5t-133 87t-69 125t-19.5 148.5zM248 1202q68 49 141.5 106.5t145.5 116.5q70 -57 142.5 -114.5 t141.5 -108.5l-78 -110q-35 20 -61.5 36.5t-50 32t-46 30.5t-48.5 34q-27 -18 -49.5 -33.5t-46 -31t-51.5 -32t-60 -36.5zM348 365q0 -86 42 -129t142 -43t142.5 43t42.5 129v268q0 86 -42 129t-143 43q-100 0 -142 -43t-42 -129v-268z" />
<glyph unicode="&#xf5;" horiz-adv-x="1064" d="M98 373v252q0 76 19.5 147.5t69 125.5t133 87t212.5 33t213 -33t133.5 -87t69 -126t19.5 -147v-252q0 -78 -19.5 -148.5t-69 -125t-133 -87t-213.5 -32.5q-129 0 -212.5 32.5t-133 87t-69 125t-19.5 148.5zM215 1206q35 61 86 109.5t117 48.5q35 0 63.5 -9t65.5 -32 t60.5 -33t45.5 -10q33 0 51.5 18.5t32.5 57.5l119 -62q-27 -80 -79 -126t-124 -46q-41 0 -69.5 9.5t-61.5 29.5q-29 20 -50 31.5t-50 11.5q-35 0 -59.5 -27.5t-45.5 -54.5zM348 365q0 -86 42 -129t142 -43t142.5 43t42.5 129v268q0 86 -42 129t-143 43q-100 0 -142 -43 t-42 -129v-268z" />
<glyph unicode="&#xf6;" horiz-adv-x="1064" d="M98 373v252q0 76 19.5 147.5t69 125.5t133 87t212.5 33t213 -33t133.5 -87t69 -126t19.5 -147v-252q0 -78 -19.5 -148.5t-69 -125t-133 -87t-213.5 -32.5q-129 0 -212.5 32.5t-133 87t-69 125t-19.5 148.5zM236 1135v215h206v-215h-206zM348 365q0 -86 42 -129t142 -43 t142.5 43t42.5 129v268q0 86 -42 129t-143 43q-100 0 -142 -43t-42 -129v-268zM623 1135v215h206v-215h-206z" />
<glyph unicode="&#xf7;" horiz-adv-x="1110" d="M133 416v168h844v-168h-844zM436 23v247h238v-247h-238zM436 727v248h238v-248h-238z" />
<glyph unicode="&#xf8;" horiz-adv-x="1064" d="M98 -45l95 137q-53 55 -74 128t-21 153v252q0 76 19.5 147.5t69 125.5t133 87t212.5 33q82 0 144.5 -13.5t109.5 -37.5l91 131l88 -58l-95 -137q53 -55 75 -128t22 -150v-252q0 -78 -19.5 -148.5t-69 -125t-133 -87t-213.5 -32.5q-158 0 -256 51l-90 -133zM348 344.5 q0 -10.5 2 -20.5l307 450q-43 31 -125 31q-100 0 -142 -43t-42 -129v-268v-20.5zM408 221q45 -29 124 -28q100 0 142.5 43t42.5 129v268v20.5t-2 20.5z" />
<glyph unicode="&#xf9;" horiz-adv-x="1116" d="M133 274v723h250v-696q0 -41 18.5 -60.5t61.5 -19.5q47 0 119.5 24.5t140.5 59.5v692h250v-997h-191l-24 84q-94 -47 -203 -75.5t-197 -28.5q-125 0 -175 79.5t-50 214.5zM287 1292l98 152q78 -57 152.5 -106.5t146.5 -94.5l-92 -139q-80 45 -149.5 88t-155.5 100z" />
<glyph unicode="&#xfa;" horiz-adv-x="1116" d="M133 274v723h250v-696q0 -41 18.5 -60.5t61.5 -19.5q47 0 119.5 24.5t140.5 59.5v692h250v-997h-191l-24 84q-94 -47 -203 -75.5t-197 -28.5q-125 0 -175 79.5t-50 214.5zM418 1243q72 45 146.5 94t152.5 107l98 -152q-86 -57 -155.5 -100t-151.5 -88z" />
<glyph unicode="&#xfb;" horiz-adv-x="1116" d="M133 274v723h250v-696q0 -41 18.5 -60.5t61.5 -19.5q47 0 119.5 24.5t140.5 59.5v692h250v-997h-191l-24 84q-94 -47 -203 -75.5t-197 -28.5q-125 0 -175 79.5t-50 214.5zM274 1202q68 49 141.5 106.5t145.5 116.5q70 -57 142.5 -114.5t142.5 -108.5l-78 -110 q-35 20 -61.5 36.5t-50 32t-46 30.5t-49.5 34q-27 -18 -49.5 -33.5t-46 -31t-51 -32t-60.5 -36.5z" />
<glyph unicode="&#xfc;" horiz-adv-x="1116" d="M133 274v723h250v-696q0 -41 18.5 -60.5t61.5 -19.5q47 0 119.5 24.5t140.5 59.5v692h250v-997h-191l-24 84q-94 -47 -203 -75.5t-197 -28.5q-125 0 -175 79.5t-50 214.5zM268 1135v215h207v-215h-207zM655 1135v215h207v-215h-207z" />
<glyph unicode="&#xfd;" horiz-adv-x="978" d="M10 997h256l228 -757l229 757h256l-320 -997l-133 -403h-237l125 403h-88zM379 1243q72 45 146.5 94t152.5 107l98 -152q-86 -57 -155.5 -100t-151.5 -88z" />
<glyph unicode="&#xfe;" horiz-adv-x="1091" d="M143 -438v1843l250 35v-504q66 45 136.5 63.5t152.5 18.5q152 0 229.5 -87t77.5 -259v-340q0 -166 -77.5 -259t-252.5 -93q-66 0 -136 8t-130 20v-411zM393 219q49 -10 108.5 -18t112.5 -8q68 0 96.5 32.5t28.5 100.5v352q0 61 -26.5 94t-96.5 33q-61 0 -121.5 -27.5 t-101.5 -62.5v-496z" />
<glyph unicode="&#xff;" horiz-adv-x="978" d="M10 997h256l228 -757l229 757h256l-320 -997l-133 -403h-237l125 403h-88zM188 1135v215h207v-215h-207zM575 1135v215h207v-215h-207z" />
<glyph unicode="&#x152;" horiz-adv-x="1835" d="M123 420v524q0 86 26.5 162t87 133t159 91t243.5 34h1083v-227h-577v-330h532v-227h-532v-353h577v-227h-1083q-145 0 -243.5 34t-159 91t-87 133t-26.5 162zM381 434q0 -96 56.5 -151.5t201.5 -55.5h248v910h-248q-145 0 -201.5 -55.5t-56.5 -151.5v-496z" />
<glyph unicode="&#x153;" horiz-adv-x="1603" d="M98 373v252q0 76 19.5 147.5t69 125.5t133 87t212.5 33q100 0 170 -26.5t136 -73.5q61 51 131.5 75.5t160.5 24.5q119 0 196 -33t120 -88t59.5 -128t16.5 -153v-213h-555v-51q0 -92 40 -130t154 -38q72 0 147.5 11.5t157.5 35.5l39 -188q-86 -33 -181 -48t-185 -15 q-104 0 -179 26.5t-126 69.5q-53 -45 -125 -70.5t-177 -25.5q-129 0 -212.5 32.5t-133 87t-69 125t-19.5 148.5zM348 365q0 -86 42 -129t142 -43q96 0 138.5 38.5t46.5 116.5v285q0 86 -42 129t-143 43q-100 0 -142 -43t-42 -129v-268zM967 604h317v49q0 72 -29.5 116 t-121.5 44t-129 -44t-37 -116v-49z" />
<glyph unicode="&#x178;" horiz-adv-x="1159" d="M10 1364h275l295 -688l294 688h275l-440 -969v-395h-258v395zM264 1487v199h209v-199h-209zM659 1487v199h209v-199h-209z" />
<glyph unicode="&#x2c6;" horiz-adv-x="796" d="M113 1202q68 49 141.5 106.5t144.5 116.5q70 -57 142.5 -114.5t142.5 -108.5l-78 -110q-35 20 -61.5 36.5t-50 32t-46 30.5t-49.5 34q-27 -18 -49 -33.5t-45.5 -31t-51.5 -32t-60 -36.5z" />
<glyph unicode="&#x2dc;" horiz-adv-x="866" d="M113 1206q35 61 86 109.5t116 48.5q35 0 64 -9t65 -32q37 -23 60.5 -33t46.5 -10q33 0 51.5 18.5t32.5 57.5l119 -62q-27 -80 -79 -126t-124 -46q-41 0 -69.5 9.5t-61.5 29.5q-29 20 -50.5 31.5t-50.5 11.5q-35 0 -59 -27.5t-45 -54.5z" />
<glyph unicode="&#x2000;" horiz-adv-x="887" />
<glyph unicode="&#x2001;" horiz-adv-x="1774" />
<glyph unicode="&#x2002;" horiz-adv-x="887" />
<glyph unicode="&#x2003;" horiz-adv-x="1774" />
<glyph unicode="&#x2004;" horiz-adv-x="591" />
<glyph unicode="&#x2005;" horiz-adv-x="443" />
<glyph unicode="&#x2006;" horiz-adv-x="295" />
<glyph unicode="&#x2007;" horiz-adv-x="295" />
<glyph unicode="&#x2008;" horiz-adv-x="221" />
<glyph unicode="&#x2009;" horiz-adv-x="354" />
<glyph unicode="&#x200a;" horiz-adv-x="98" />
<glyph unicode="&#x2010;" horiz-adv-x="761" d="M123 469v209h516v-209h-516z" />
<glyph unicode="&#x2011;" horiz-adv-x="761" d="M123 469v209h516v-209h-516z" />
<glyph unicode="&#x2012;" horiz-adv-x="761" d="M123 469v209h516v-209h-516z" />
<glyph unicode="&#x2013;" horiz-adv-x="1024" d="M133 469v209h758v-209h-758z" />
<glyph unicode="&#x2014;" horiz-adv-x="1320" d="M133 469v209h1055v-209h-1055z" />
<glyph unicode="&#x2018;" horiz-adv-x="561" d="M154 868v303l159 269l115 -64l-115 -221h95v-287h-254z" />
<glyph unicode="&#x2019;" horiz-adv-x="540" d="M133 897l115 221h-94v287h254v-303l-160 -268z" />
<glyph unicode="&#x201a;" horiz-adv-x="561" d="M133 -221l115 221h-94v287h254v-303l-160 -269z" />
<glyph unicode="&#x201c;" horiz-adv-x="970" d="M154 868v303l159 269l115 -64l-115 -221h95v-287h-254zM563 868v303l160 269l115 -64l-115 -221h94v-287h-254z" />
<glyph unicode="&#x201d;" horiz-adv-x="970" d="M133 897l115 221h-94v287h254v-303l-160 -268zM543 897l114 221h-94v287h254v-303l-160 -268z" />
<glyph unicode="&#x201e;" horiz-adv-x="970" d="M133 -221l115 221h-94v287h254v-303l-160 -269zM543 -221l114 221h-94v287h254v-303l-160 -269z" />
<glyph unicode="&#x2022;" horiz-adv-x="755" d="M113 662q0 55 20.5 103t56 85t84 57.5t103.5 20.5t103 -20.5t85 -57.5t57.5 -85t20.5 -103t-20.5 -103.5t-57.5 -84.5t-85 -56.5t-103 -20.5t-103.5 20.5t-84 56.5t-56 84.5t-20.5 103.5z" />
<glyph unicode="&#x2026;" horiz-adv-x="1683" d="M154 0v287h254v-287h-254zM715 0v287h254v-287h-254zM1276 0v287h254v-287h-254z" />
<glyph unicode="&#x202f;" horiz-adv-x="354" />
<glyph unicode="&#x2039;" horiz-adv-x="610" d="M72 500l260 395l166 -104l-191 -291l191 -291l-166 -105z" />
<glyph unicode="&#x203a;" horiz-adv-x="610" d="M113 209l190 291l-190 291l166 104l260 -395l-260 -396z" />
<glyph unicode="&#x205f;" horiz-adv-x="443" />
<glyph unicode="&#x20ac;" horiz-adv-x="1101" d="M61 444v140h150v168h-150v139h150v67q0 188 114.5 286.5t370.5 98.5q78 0 153 -8t161 -30l-29 -213q-84 16 -150.5 22t-125.5 6q-72 0 -118 -12t-72 -36.5t-36 -63.5t-10 -95v-22h412v-139h-412v-168h412v-140h-412v-34q0 -55 10 -94.5t36 -64t72 -36.5t118 -12 q59 0 125.5 6t150.5 22l29 -213q-86 -23 -161 -30.5t-153 -7.5q-256 0 -370.5 98.5t-114.5 286.5v79h-150z" />
<glyph unicode="&#x2122;" horiz-adv-x="1026" d="M102 1282v82h320v-82h-115v-336h-90v336h-115zM494 946l14 418h94l100 -268l103 268h92l16 -418h-88l-4 242l-73 -191h-91l-71 189l-6 -240h-86z" />
<glyph unicode="&#xe000;" horiz-adv-x="993" d="M0 0v993h993v-993h-993z" />
<glyph unicode="&#xfb03;" horiz-adv-x="2023" d="M51 799v198h160v140q0 156 75.5 232.5t241.5 76.5q133 0 258 -33l-28 -192q-49 10 -97.5 15t-87.5 5q-74 0 -93 -30.5t-19 -88.5v-125h493v140q0 156 76 232.5t242 76.5q43 0 89 -5t99 -20l-26 -192q-31 6 -62 9t-55 3q-74 0 -93.5 -30.5t-19.5 -88.5v-125h676v-997h-250 v799h-426v-799h-250v799h-493v-799h-250v799h-160zM1630 1139v288h250v-288h-250z" />
<glyph unicode="&#xfb04;" horiz-adv-x="2023" d="M51 799v198h160v140q0 156 75.5 232.5t241.5 76.5q59 0 121 -8t125 -25l-29 -192q-47 10 -94 15t-78 5q-74 0 -93 -30.5t-19 -88.5v-125h493v140q0 156 76 232.5t242 76.5q47 0 98 -6t98 -21l-26 -192q-31 6 -66 10t-59 4q-74 0 -93.5 -30.5t-19.5 -88.5v-125h254 l-14 -198h-240v-799h-250v799h-493v-799h-250v799h-160zM1630 0v1405l250 35v-1440h-250z" />
</font>
</defs>
</svg>
