<?xml version="1.0" encoding="utf-8"?>
<!-- Generator: Adobe Illustrator 16.0.0, SVG Export Plug-In . SVG Version: 6.00 Build 0)  -->
<!DOCTYPE svg PUBLIC "-//W3C//DTD SVG 1.1//EN" "http://www.w3.org/Graphics/SVG/1.1/DTD/svg11.dtd">
<svg version="1.1" id="Layer_1" xmlns="http://www.w3.org/2000/svg" xmlns:xlink="http://www.w3.org/1999/xlink" x="0px" y="0px"
	 width="88px" height="15px" viewBox="0 0 88 15" enable-background="new 0 0 88 15" xml:space="preserve">
<g opacity="0.6">
	<g>
		<g>
			<g>
				<path fill="#333333" d="M37.368,6.992c-0.217-1.077-1.103-1.364-2.097-1.453c-3.2-0.298-3.768,2.094-3.768,3.105
					c0,1.727,0.501,3.154,3.65,3.154c0.58,0,2.178-0.594,2.178-1.562h4.525c-0.185,2.875-5.021,3.559-7.127,3.559
					c-4.375,0-8.116-0.811-7.936-5.113c0.131-3.067,3.034-5.226,8.812-5.094c3.221,0.077,6.312,1.083,6.329,3.404H37.368z"/>
				<path fill="#333333" d="M82.674,6.992c-0.225-1.077-1.111-1.364-2.1-1.453c-3.199-0.298-3.771,2.094-3.771,3.105
					c0,1.727,0.506,3.154,3.645,3.154c0.584,0,2.188-0.594,2.188-1.562h4.521c-0.184,2.875-5.02,3.559-7.131,3.559
					c-4.367,0-8.111-0.811-7.932-5.113c0.131-3.067,3.037-5.226,8.812-5.094c3.219,0.077,6.312,1.083,6.326,3.404H82.674z"/>
				<path fill="#333333" d="M42.746,3.798h5.866l5.012,7.017h0.039V3.798h3.762v9.747h-5.625l-5.256-7.02h-0.037v7.02h-3.76V3.798z"
					/>
				<path fill="#333333" d="M58.586,3.798h7.129c3.43,0,5.449,0.953,5.449,2.4c0,0.854-0.846,1.907-2.727,2.218v0.031
					c2.264,0.131,3.1,1.561,3.1,2.416c0,1.723-1.963,2.682-5.797,2.682h-7.154V3.798z M62.713,7.578h1.184
					c1.818,0,2.787-0.137,2.787-0.896c0-0.806-0.801-1.079-2.443-1.079h-1.527V7.578z M62.713,11.5h1.184
					c2.197,0,3.002-0.234,3.002-0.986c0-0.814-1.016-1.08-2.658-1.08h-1.527V11.5z"/>
			</g>
		</g>
		<path fill="#333333" d="M13.981,10.348l-0.986-6.213c-0.05-0.377,0.232-0.592,0.668-0.877c0.102-0.066,0.197-0.129,0.285-0.195
			l0.087-0.067l-0.021-0.108c-0.033-0.163-0.167-0.211-0.232-0.234c-0.012-0.004-0.023-0.007-0.034-0.013l-0.04-0.023L13.652,2.61
			l-0.854-0.009c0.054-0.729,0.477-1.382,1.127-1.728c0.297-0.172,0.647-0.262,1.018-0.262c0.528,0,1.043,0.18,1.411,0.496
			c0.288,0.257,0.493,0.529,0.608,0.806c0.363,0.733,0.106,1.656-0.223,2.227l-0.004,0.008L16.73,4.156L13.981,10.348L13.981,10.348
			z"/>
		<path fill="#333333" d="M10.644,10.369l-0.073-0.148L7.539,3.458C7.291,2.681,7.511,1.83,8.113,1.237
			C8.49,0.853,9.038,0.634,9.618,0.634c0.29,0,0.578,0.057,0.833,0.165c0.428,0.182,0.811,0.512,1.051,0.907
			c0.254,0.474,0.345,0.937,0.273,1.405L10.644,10.369L10.644,10.369z"/>
		<path fill="#333333" d="M14.312,12.113l3.19-7.2c0.393-0.695,1.123-1.119,1.943-1.119c0.11,0,0.222,0.007,0.333,0.022
			c0.671,0.123,1.294,0.573,1.581,1.146c0.362,0.616,0.305,1.605-0.122,2.215c-0.196,0.314-0.481,0.508-0.783,0.715
			c-0.108,0.074-0.216,0.146-0.319,0.225L14.312,12.113L14.312,12.113z"/>
		<path fill="#333333" d="M10.305,12.125L3.746,7.607c-0.65-0.551-0.913-1.381-0.688-2.213c0.169-0.637,0.694-1.22,1.307-1.45
			c0.25-0.092,0.514-0.139,0.78-0.139c0.8,0,1.54,0.431,1.93,1.125L10.305,12.125L10.305,12.125z"/>
		<path fill="#333333" d="M14.227,13.449l5.789-4.027c0.309-0.199,0.733-0.314,1.16-0.314c0.317,0,0.618,0.062,0.867,0.182
			c0.461,0.182,0.926,0.643,1.141,1.123c0.315,0.666,0.201,1.607-0.263,2.191c-0.455,0.551-1.055,0.842-1.733,0.842h-0.058
			L14.227,13.449L14.227,13.449z"/>
		<path fill="#333333" d="M10.374,13.449l-6.898-0.004H3.414c-0.678,0-1.278-0.291-1.734-0.844
			c-0.463-0.582-0.578-1.521-0.264-2.186c0.219-0.484,0.683-0.945,1.131-1.123C2.808,9.17,3.108,9.107,3.426,9.107
			c0.426,0,0.851,0.115,1.167,0.318L10.374,13.449L10.374,13.449z"/>
	</g>
	<rect y="-0.314" fill="none" width="88.193" height="15.314"/>
</g>
</svg>
